<svg width="120" height="40" viewBox="0 0 126 36" fill="none" xmlns="http://www.w3.org/2000/svg">
<path d="M0 6C0 3.79086 1.79086 2 4 2H30C32.2091 2 34 3.79086 34 6V32C34 34.2091 32.2091 36 30 36H4C1.79086 36 0 34.2091 0 32V6Z" fill="#373739"/>
<path d="M21.2784 12H25L25 29H21.2784L21.2784 12Z" fill="white"/>
<path d="M19.1648 29L8 29L8 25.6H15.4432V22.2H8V18.8H15.4432V15.4L8 15.4V12L19.1648 12L19.1648 29Z" fill="white"/>
<path d="M0 2H34V7H0V2Z" fill="#696969"/>
<path d="M5 0H8V5H5V0Z" fill="#D9D9D9"/>
<path d="M12 0H15V5H12V0Z" fill="#D9D9D9"/>
<path d="M19 0H22V5H19V0Z" fill="#D9D9D9"/>
<path d="M26 0H29V5H26V0Z" fill="#D9D9D9"/>
<path d="M88.7076 14.168V12.92H93.6676C93.9876 12.92 94.1476 12.76 94.1476 12.44V11.288C94.1476 10.9786 94.0143 10.8026 93.7476 10.76L90.6276 10.12C89.3476 9.86396 88.7076 9.00529 88.7076 7.54396V6.64796C88.7076 4.85596 89.6036 3.95996 91.3956 3.95996H95.0596L96.1316 4.79196V6.03996H91.4916C91.1716 6.03996 91.0116 6.19996 91.0116 6.51996V7.55996C91.0116 7.85863 91.145 8.03463 91.4116 8.08796L94.5316 8.71196C95.8116 8.96796 96.4516 9.82663 96.4516 11.288V12.312C96.4516 14.104 95.5556 15 93.7636 15H89.7796L88.7076 14.168Z" fill="#323232"/>
<path d="M78.332 15V3.95996H82.524C85.532 3.95996 87.036 5.46396 87.036 8.47196V10.488C87.036 13.496 85.532 15 82.524 15H78.332ZM80.636 12.92H82.652C84.0387 12.92 84.732 12.2266 84.732 10.84V8.11996C84.732 6.7333 84.0387 6.03996 82.652 6.03996H80.636V12.92Z" fill="#323232"/>
<path d="M67.0039 12.312V6.64796C67.0039 4.85596 67.8999 3.95996 69.6919 3.95996H73.3399C75.1319 3.95996 76.0279 4.85596 76.0279 6.64796V12.312C76.0279 14.104 75.1319 15 73.3399 15H69.6919C67.8999 15 67.0039 14.104 67.0039 12.312ZM69.3079 12.44C69.3079 12.76 69.4679 12.92 69.7879 12.92H73.2439C73.5639 12.92 73.7239 12.76 73.7239 12.44V6.51996C73.7239 6.19996 73.5639 6.03996 73.2439 6.03996H69.7879C69.4679 6.03996 69.3079 6.19996 69.3079 6.51996V12.44Z" fill="#323232"/>
<path d="M55.8357 12.312V6.64796C55.8357 4.85596 56.7317 3.95996 58.5237 3.95996H62.1717C63.9637 3.95996 64.8597 4.85596 64.8597 6.64796V12.312C64.8597 14.104 63.9637 15 62.1717 15H58.5237C56.7317 15 55.8357 14.104 55.8357 12.312ZM58.1397 12.44C58.1397 12.76 58.2997 12.92 58.6197 12.92H62.0757C62.3957 12.92 62.5557 12.76 62.5557 12.44V6.51996C62.5557 6.19996 62.3957 6.03996 62.0757 6.03996H58.6197C58.2997 6.03996 58.1397 6.19996 58.1397 6.51996V12.44Z" fill="#323232"/>
<path d="M45.152 12.312V6.64796C45.152 4.85596 46.048 3.95996 47.84 3.95996H52.464L53.536 4.79196V6.03996H47.936C47.616 6.03996 47.456 6.19996 47.456 6.51996V12.44C47.456 12.76 47.616 12.92 47.936 12.92H51.552V10.36H49.44V8.27996H53.856V15H47.84C46.048 15 45.152 14.104 45.152 12.312Z" fill="#323232"/>
<path d="M116.739 33V21.96H122.115C123.907 21.96 124.803 22.856 124.803 24.648V26.472C124.803 27.8053 124.307 28.6373 123.315 28.968L125.123 32.52L124.851 33H122.867L120.915 29.16H119.043V33H116.739ZM119.043 27.08H122.019C122.339 27.08 122.499 26.92 122.499 26.6V24.52C122.499 24.2 122.339 24.04 122.019 24.04H119.043V27.08Z" fill="#323232"/>
<path d="M105.219 32.568L108.499 21.96H112.019L115.299 32.568L115.011 33H113.091L112.419 30.76H108.099L107.427 33H105.507L105.219 32.568ZM108.723 28.68H111.795L110.387 24.04H110.131L108.723 28.68Z" fill="#323232"/>
<path d="M95.387 33V21.96H99.579C102.587 21.96 104.091 23.464 104.091 26.472V28.488C104.091 31.496 102.587 33 99.579 33H95.387ZM97.691 30.92H99.707C101.094 30.92 101.787 30.2266 101.787 28.84V26.12C101.787 24.7333 101.094 24.04 99.707 24.04H97.691V30.92Z" fill="#323232"/>
<path d="M83.7345 33V21.96H86.2305L90.6145 29.208V21.96H92.9185V33H90.4225L86.0385 25.752V33H83.7345Z" fill="#323232"/>
<path d="M74.2383 33V21.96H81.7903V24.04H76.5423V26.28H81.3103V28.36H76.5423V30.92H81.7903V33H74.2383Z" fill="#323232"/>
<path d="M65.6326 33V21.96H67.9366V30.92H72.7046V33H65.6326Z" fill="#323232"/>
<path d="M54.1123 32.568L57.3923 21.96H60.9123L64.1923 32.568L63.9043 33H61.9843L61.3123 30.76H56.9923L56.3203 33H54.4003L54.1123 32.568ZM57.6163 28.68H60.6883L59.2803 24.04H59.0243L57.6163 28.68Z" fill="#323232"/>
<path d="M45.152 30.312V24.648C45.152 22.856 46.048 21.96 47.84 21.96H52.112L53.184 22.792V24.04H47.936C47.616 24.04 47.456 24.2 47.456 24.52V30.44C47.456 30.76 47.616 30.92 47.936 30.92H53.184V32.168L52.112 33H47.84C46.048 33 45.152 32.104 45.152 30.312Z" fill="#323232"/>
</svg>
